<svg width="90" height="43" viewBox="0 0 90 43" fill="none" xmlns="http://www.w3.org/2000/svg">
<path d="M39 21C39 25.4183 42.5817 29 47 29C51.4183 29 55 25.4183 55 21C55 16.5817 51.4183 13 47 13" stroke="url(#paint0_angular)" stroke-width="3" stroke-linecap="round"/>
<path opacity="0.1" d="M2.875 32H0.875V34H2.875V32ZM10.7727 32V34H12.7727V32H10.7727ZM10.7727 20.6364V18.6364H8.77273V20.6364H10.7727ZM21.2273 20.6364H23.2273V18.6364H21.2273V20.6364ZM21.2273 32H19.2273V34H21.2273V32ZM29.125 32V34H31.125V32H29.125ZM29.125 2.90909H31.125V0.90909H29.125V2.90909ZM21.2273 2.90909V0.90909H19.2273V2.90909H21.2273ZM21.2273 14.2727V16.2727H23.2273V14.2727H21.2273ZM10.7727 14.2727H8.77273V16.2727H10.7727V14.2727ZM10.7727 2.90909H12.7727V0.90909H10.7727V2.90909ZM2.875 2.90909V0.90909H0.875V2.90909H2.875ZM2.875 34H10.7727V30H2.875V34ZM12.7727 32V20.6364H8.77273V32H12.7727ZM10.7727 22.6364H21.2273V18.6364H10.7727V22.6364ZM19.2273 20.6364V32H23.2273V20.6364H19.2273ZM21.2273 34H29.125V30H21.2273V34ZM31.125 32V2.90909H27.125V32H31.125ZM29.125 0.90909H21.2273V4.90909H29.125V0.90909ZM19.2273 2.90909V14.2727H23.2273V2.90909H19.2273ZM21.2273 12.2727H10.7727V16.2727H21.2273V12.2727ZM12.7727 14.2727V2.90909H8.77273V14.2727H12.7727ZM10.7727 0.90909H2.875V4.90909H10.7727V0.90909ZM0.875 2.90909V32H4.875V2.90909H0.875ZM78.8977 33.8182L77.0022 33.1803L77.0011 33.1835L78.8977 33.8182ZM86.8523 10.1818L88.7478 10.8197L89.6356 8.18182H86.8523V10.1818ZM78.6136 10.1818V8.18182H77.032L76.6675 9.72088L78.6136 10.1818ZM75.0341 25.2955V27.2955H76.6157L76.9803 25.7564L75.0341 25.2955ZM74.8068 25.2955L72.859 25.7495L73.2194 27.2955H74.8068V25.2955ZM71.2841 10.1818L73.2319 9.72782L72.8715 8.18182H71.2841V10.1818ZM63.1023 10.1818V8.18182H60.3187L61.2068 10.8199L63.1023 10.1818ZM70.7727 32.9659L72.611 33.7537L72.9119 33.0517L72.6682 32.3278L70.7727 32.9659ZM70.6023 33.3636L72.4361 34.1619L72.4406 34.1515L70.6023 33.3636ZM66.625 33.8466L67.2906 31.9606L65.3233 31.2663L64.7126 33.2612L66.625 33.8466ZM64.9205 39.4148L63.0081 38.8293L62.4674 40.5956L64.1851 41.2747L64.9205 39.4148ZM69.6364 42.1818C72.7251 42.1818 75.1943 41.3991 77.0913 39.9371C78.9736 38.4864 80.1057 36.5108 80.7943 34.4529L77.0011 33.1835C76.4824 34.7335 75.7253 35.9398 74.6495 36.7689C73.5884 37.5867 72.0306 38.1818 69.6364 38.1818V42.1818ZM80.7933 34.4561L88.7478 10.8197L84.9567 9.5439L77.0022 33.1803L80.7933 34.4561ZM86.8523 8.18182H78.6136V12.1818H86.8523V8.18182ZM76.6675 9.72088L73.0879 24.8345L76.9803 25.7564L80.5598 10.6427L76.6675 9.72088ZM75.0341 23.2955H74.8068V27.2955H75.0341V23.2955ZM76.7546 24.8415L73.2319 9.72782L69.3363 10.6358L72.859 25.7495L76.7546 24.8415ZM71.2841 8.18182H63.1023V12.1818H71.2841V8.18182ZM61.2068 10.8199L68.8773 33.604L72.6682 32.3278L64.9977 9.54369L61.2068 10.8199ZM68.9344 32.1781L68.764 32.5758L72.4406 34.1515L72.611 33.7537L68.9344 32.1781ZM68.7685 32.5654C68.7888 32.5187 68.8538 32.4219 68.9657 32.3515C69.0579 32.2935 69.0907 32.3112 68.9813 32.32C68.7134 32.3414 68.1674 32.27 67.2906 31.9606L65.9594 35.7326C67.0145 36.105 68.1943 36.3958 69.3007 36.3072C70.5337 36.2084 71.8096 35.601 72.4361 34.1619L68.7685 32.5654ZM64.7126 33.2612L63.0081 38.8293L66.8329 40.0002L68.5374 34.432L64.7126 33.2612ZM64.1851 41.2747C65.7011 41.874 67.6548 42.1818 69.6364 42.1818V38.1818C68.0099 38.1818 66.5829 37.9214 65.6558 37.5549L64.1851 41.2747Z" fill="currentColor"/>
<defs>
<radialGradient id="paint0_angular" cx="0" cy="0" r="1" gradientUnits="userSpaceOnUse" gradientTransform="translate(47 21) rotate(-104.036) scale(8.24621)">
<stop stop-opacity="0"/>
<stop offset="0.832998"/>
<stop offset="0.903174" stop-opacity="0"/>
</radialGradient>
</defs>
</svg>
