<svg width="157" height="81" viewBox="0 0 157 81" fill="none" xmlns="http://www.w3.org/2000/svg">
<path fill-rule="evenodd" clip-rule="evenodd" d="M0 65.0501V0.90909H23.0617V22.9355H35.5727V0.90909H58.6344V29.7162C59.7965 26.6437 61.5117 23.9044 63.757 21.6094C68.3223 16.9431 74.7456 14.4553 82.1806 14.4553C89.4178 14.4553 95.7434 16.8058 100.259 21.4194C101.108 22.2863 101.879 23.2192 102.572 24.2128L99.4723 15.006H123.804L127.804 32.1669L131.868 15.006H156.298L139.161 65.9279C139.161 65.9288 139.16 65.9298 139.16 65.9307C137.825 69.9187 135.631 73.7468 131.983 76.5581C128.306 79.392 123.52 80.9091 117.533 80.9091C113.692 80.9091 109.905 80.3125 106.967 79.1508L103.637 77.8344L109.173 59.7512L112.986 61.0971C113.904 61.4211 114.635 61.6105 115.195 61.7095L106.99 37.3371C107.058 38.2176 107.093 39.115 107.093 40.028V43.6404H107.773L107.042 48.1388C106.163 53.5489 103.362 58.0788 98.9683 61.1963C94.6302 64.2743 88.9714 65.821 82.511 65.821C74.9624 65.821 68.4375 63.5433 63.7932 58.9202C61.5135 56.6509 59.7943 53.9235 58.6344 50.8333V65.0501H35.5727V43.0236H23.0617V65.0501H0ZM76.3283 47.4289C75.9042 46.4795 75.6828 45.3924 75.6828 44.2131V43.5523H103.216V40.028C103.216 39.9102 103.215 39.7927 103.214 39.6756C103.071 26.4209 94.8441 18.332 82.1806 18.332C69.0749 18.332 60.7048 27.0324 60.7048 40.1382C60.7048 53.8221 68.9648 61.9443 82.511 61.9443C92.4125 61.9443 99.3316 57.9416 102.109 51.3937C102.621 50.1851 102.993 48.8898 103.216 47.517H89.3392C88.4582 49.9124 85.9526 51.2615 82.8414 51.2615C79.6328 51.2615 77.3696 49.7601 76.3283 47.4289ZM135.485 64.6976L150.903 18.8827H134.934L127.996 48.1778H127.555L120.727 18.8827H104.868L119.736 63.0456L119.405 63.8166C118.558 65.763 116.378 66.0334 113.514 65.3091C112.934 65.1625 112.326 64.9751 111.696 64.7527L108.392 75.5457C109.152 75.8459 110.004 76.1065 110.928 76.322C111.318 76.4129 111.72 76.4957 112.133 76.5701C113.794 76.8695 115.631 77.0324 117.533 77.0324C128.161 77.0324 133.144 71.691 135.485 64.6976ZM19.185 4.78574V26.8122H39.4493V4.78574H54.7577V61.1734H39.4493V39.147H19.185V61.1734H3.87665V4.78574H19.185ZM75.6828 35.1822H89.2291C89.1945 33.6626 88.6738 32.3355 87.8037 31.3056C86.593 29.8724 84.7058 29.0148 82.511 29.0148C80.3424 29.0148 78.408 29.8677 77.1564 31.3056C76.2628 32.3321 75.7172 33.6568 75.6828 35.1822Z" fill="currentColor"/>
</svg>
