<svg width="24" height="24" viewBox="0 0 24 24" fill="none" xmlns="http://www.w3.org/2000/svg">
    <path fill-rule="evenodd" clip-rule="evenodd" d="M15.3333 12C15.3333 11.0799 15.0074 10.2943 14.3564 9.64332C13.7054 8.99231 12.9199 8.66642 11.9997 8.66642C11.0796 8.66642 10.294 8.99231 9.64304 9.64332C8.99203 10.2943 8.66614 11.0799 8.66614 12C8.66614 12.9201 8.99203 13.7057 9.64304 14.3567C10.294 15.0077 11.0796 15.3328 11.9997 15.3328C12.9199 15.3328 13.7054 15.0077 14.3564 14.3567C15.0074 13.7057 15.3333 12.9201 15.3333 12ZM17.1305 11.9999C17.1305 13.4233 16.6312 14.6343 15.6333 15.6322C14.6346 16.6309 13.4236 17.1302 12.0002 17.1302C10.5769 17.1302 9.36585 16.6309 8.36717 15.6322C7.36927 14.6343 6.86993 13.4233 6.86993 11.9999C6.86993 10.5758 7.36927 9.36479 8.36717 8.3669C9.36585 7.36822 10.5769 6.86966 12.0002 6.86966C13.4236 6.86966 14.6346 7.36822 15.6333 8.3669C16.6312 9.36479 17.1305 10.5758 17.1305 11.9999ZM18.5364 6.6612C18.5364 6.99099 18.4189 7.27332 18.1848 7.50743C17.9507 7.74155 17.6684 7.85899 17.3386 7.85899C17.0088 7.85899 16.7265 7.74155 16.4924 7.50743C16.2575 7.27332 16.1408 6.99099 16.1408 6.6612C16.1408 6.33142 16.2575 6.04909 16.4924 5.81497C16.7265 5.58008 17.0088 5.46341 17.3386 5.46341C17.6684 5.46341 17.9507 5.58008 18.1848 5.81497C18.4189 6.04909 18.5364 6.33142 18.5364 6.6612ZM12.0001 3.79682C11.9394 3.79682 11.6073 3.79449 11.0037 3.78982C10.4009 3.78593 9.94281 3.78593 9.63014 3.78982C9.31747 3.79449 8.89902 3.80771 8.37402 3.82949C7.84823 3.85127 7.40178 3.89405 7.03234 3.95938C6.66367 4.02471 6.35333 4.10483 6.10133 4.20049C5.66732 4.37394 5.28543 4.62594 4.95565 4.95572C4.62587 5.28551 4.37386 5.6674 4.20042 6.1014C4.10475 6.35341 4.02464 6.66374 3.9593 7.03241C3.89475 7.40108 3.85119 7.84831 3.82941 8.37332C3.80763 8.8991 3.79441 9.31755 3.79052 9.63022C3.78586 9.94289 3.78586 10.4002 3.79052 11.0038C3.79441 11.6074 3.79675 11.9395 3.79675 12.0001C3.79675 12.0608 3.79441 12.3929 3.79052 12.9957C3.78586 13.5993 3.78586 14.0574 3.79052 14.37C3.79441 14.6819 3.80763 15.1012 3.82941 15.6262C3.85119 16.1512 3.89475 16.5984 3.9593 16.9671C4.02464 17.3365 4.10475 17.6469 4.20042 17.8981C4.37386 18.3321 4.62587 18.7148 4.95565 19.0445C5.28543 19.3743 5.66732 19.6256 6.10133 19.7998C6.35333 19.8947 6.66367 19.9756 7.03234 20.0401C7.40178 20.1054 7.84823 20.149 8.37402 20.1708C8.89902 20.1926 9.31747 20.205 9.63014 20.2097C9.94281 20.2143 10.4009 20.2143 11.0037 20.2097C11.6073 20.205 11.9394 20.2034 12.0001 20.2034C12.0607 20.2034 12.3928 20.205 12.9964 20.2097C13.5992 20.2143 14.0573 20.2143 14.37 20.2097C14.6826 20.205 15.1011 20.1926 15.6261 20.1708C16.1519 20.149 16.5983 20.1054 16.9678 20.0401C17.3364 19.9756 17.6468 19.8947 17.8988 19.7998C18.3328 19.6256 18.7147 19.3743 19.0445 19.0445C19.3742 18.7148 19.6263 18.3321 19.7997 17.8981C19.8954 17.6469 19.9755 17.3365 20.0408 16.9671C20.1054 16.5984 20.1489 16.1512 20.1707 15.6262C20.1925 15.1012 20.2057 14.6819 20.2096 14.37C20.2143 14.0574 20.2143 13.5993 20.2096 12.9957C20.2057 12.3929 20.2034 12.0608 20.2034 12.0001C20.2034 11.9395 20.2057 11.6074 20.2096 11.0038C20.2143 10.4002 20.2143 9.94289 20.2096 9.63022C20.2057 9.31755 20.1925 8.8991 20.1707 8.37332C20.1489 7.84831 20.1054 7.40108 20.0408 7.03241C19.9755 6.66374 19.8954 6.35341 19.7997 6.1014C19.6263 5.6674 19.3742 5.28551 19.0445 4.95572C18.7147 4.62594 18.3328 4.37394 17.8988 4.20049C17.6468 4.10483 17.3364 4.02471 16.9678 3.95938C16.5983 3.89405 16.1519 3.85127 15.6261 3.82949C15.1011 3.80771 14.6826 3.79449 14.37 3.78982C14.0573 3.78593 13.5992 3.78593 12.9964 3.78982C12.3928 3.79449 12.0607 3.79682 12.0001 3.79682ZM22 12C22 13.988 21.9782 15.3631 21.9347 16.1277C21.8483 17.933 21.3101 19.3306 20.3208 20.32C19.3306 21.3101 17.933 21.8483 16.1277 21.9347C15.3639 21.9782 13.988 22 12 22C10.012 22 8.63607 21.9782 7.87229 21.9347C6.06705 21.8483 4.66936 21.3101 3.67924 20.32C2.6899 19.3306 2.15167 17.933 2.06533 16.1277C2.02178 15.3631 2 13.988 2 12C2 10.012 2.02178 8.63607 2.06533 7.87229C2.15167 6.06627 2.6899 4.66859 3.67924 3.67924C4.66936 2.6899 6.06705 2.15167 7.87229 2.06456C8.63607 2.021 10.012 2 12 2C13.988 2 15.3639 2.021 16.1277 2.06456C17.933 2.15167 19.3306 2.6899 20.3208 3.67924C21.3101 4.66859 21.8483 6.06627 21.9347 7.87229C21.9782 8.63607 22 10.012 22 12Z" fill="currentColor"/>
</svg>