<svg width="24" height="24" viewBox="0 0 24 24" fill="none" xmlns="http://www.w3.org/2000/svg">
<path fill-rule="evenodd" clip-rule="evenodd" d="M21.894 6.08697C21.333 6.90747 20.655 7.60647 19.86 8.18397C19.8682 8.30097 19.8727 8.47647 19.8727 8.71122C19.8727 9.79947 19.7137 10.8855 19.395 11.9692C19.077 13.0537 18.594 14.0932 17.9452 15.0892C17.2965 16.086 16.524 16.9665 15.6285 17.7322C14.733 18.4987 13.653 19.1092 12.3892 19.566C11.1255 20.022 9.77321 20.25 8.33396 20.25C6.06521 20.25 3.98921 19.6432 2.10596 18.4297C2.39921 18.4627 2.72546 18.48 3.08546 18.48C4.96871 18.48 6.64721 17.9017 8.12021 16.7467C7.24121 16.7302 6.45446 16.4602 5.75996 15.9367C5.06471 15.414 4.58771 14.7465 4.32821 13.9342C4.60496 13.9762 4.85996 13.9972 5.09396 13.9972C5.45396 13.9972 5.81021 13.9515 6.16121 13.8592C5.22371 13.6665 4.44746 13.2 3.83246 12.459C3.21746 11.718 2.90921 10.8585 2.90921 9.87897V9.82872C3.47846 10.1467 4.08971 10.3185 4.74296 10.3432C4.19021 9.97497 3.75071 9.49347 3.42446 8.89947C3.09821 8.30547 2.93471 7.66047 2.93471 6.96597C2.93471 6.22947 3.11846 5.54697 3.48746 4.91922C4.49996 6.16647 5.73221 7.16472 7.18496 7.91397C8.63696 8.66322 10.1917 9.07947 11.8492 9.16347C11.7825 8.84547 11.7487 8.53572 11.7487 8.23422C11.7487 7.11222 12.1447 6.15597 12.9352 5.36472C13.7265 4.57422 14.6827 4.17822 15.8047 4.17822C16.9762 4.17822 17.964 4.60572 18.7672 5.45922C19.68 5.28372 20.538 4.95672 21.3412 4.47972C21.0315 5.44272 20.4375 6.18747 19.5585 6.71472C20.337 6.63147 21.1155 6.42222 21.894 6.08697Z" fill="currentColor"/>
</svg>
